<svg version="1.1" id="Layer_1" xmlns="http://www.w3.org/2000/svg" xmlns:xlink="http://www.w3.org/1999/xlink" x="0px" y="0px"
	 width="24" height="24" viewBox="0 0 978 958" enable-background="new 0 0 978 958" xml:space="preserve">
<path fill="#FFFFFF" opacity="1.000000" stroke="none" 
	d="
M525.000000,959.000000 
	C350.000000,959.000000 175.500000,959.000000 1.000000,959.000000 
	C1.000000,639.666687 1.000000,320.333344 1.000000,1.000000 
	C327.000000,1.000000 653.000000,1.000000 979.000000,1.000000 
	C979.000000,320.333344 979.000000,639.666687 979.000000,959.000000 
	C827.833313,959.000000 676.666687,959.000000 525.000000,959.000000 
M602.909790,900.428650 
	C691.759094,875.171570 766.967224,828.050903 825.825134,756.898804 
	C915.293945,648.741943 948.518127,524.414001 924.399963,386.192902 
	C906.622437,284.310028 858.099426,198.042725 779.943237,130.223923 
	C669.144348,34.079933 540.165894,-1.192520 396.013977,25.645632 
	C287.050323,45.932442 197.220627,100.989159 129.011658,188.434464 
	C44.853645,296.326752 15.352819,418.857941 40.616489,553.290405 
	C59.414906,653.320068 108.252762,737.438293 184.765457,804.623108 
	C267.102936,876.922607 363.738861,913.897156 473.242798,916.889832 
	C516.983337,918.085266 559.947327,912.247314 602.909790,900.428650 
z"/>
<path fill="#2C673D" opacity="1.000000" stroke="none" 
	d="
M602.527466,900.574463 
	C559.947327,912.247314 516.983337,918.085266 473.242798,916.889832 
	C363.738861,913.897156 267.102936,876.922607 184.765457,804.623108 
	C108.252762,737.438293 59.414906,653.320068 40.616489,553.290405 
	C15.352819,418.857941 44.853645,296.326752 129.011658,188.434464 
	C197.220627,100.989159 287.050323,45.932442 396.013977,25.645632 
	C540.165894,-1.192520 669.144348,34.079933 779.943237,130.223923 
	C858.099426,198.042725 906.622437,284.310028 924.399963,386.192902 
	C948.518127,524.414001 915.293945,648.741943 825.825134,756.898804 
	C766.967224,828.050903 691.759094,875.171570 602.527466,900.574463 
M581.964966,545.535400 
	C577.818298,541.755188 573.671631,537.974976 569.572083,534.237610 
	C573.320374,528.313660 577.161865,522.874268 580.359009,517.079407 
	C593.744873,492.817444 596.573120,468.179962 582.906250,442.862091 
	C574.128662,426.601593 552.280640,416.133423 534.198425,419.720825 
	C523.521179,421.839142 514.559021,427.263947 506.722412,434.268555 
	C493.792053,445.826233 487.666168,460.454163 489.627930,478.018494 
	C491.369629,493.612793 498.975830,506.269958 509.626099,517.315735 
	C514.444031,522.312561 519.502441,527.077637 525.561218,533.039612 
	C513.226196,538.751038 502.356476,544.603210 490.910095,548.929688 
	C457.131897,561.697144 423.090240,562.482605 388.870575,550.009766 
	C330.087006,528.583618 290.876556,468.319366 300.966431,403.272980 
	C308.971375,351.667206 338.476135,316.174683 386.043365,296.357910 
	C422.154846,281.313690 458.895386,282.655731 494.754852,298.613464 
	C520.317078,309.988861 541.542786,326.927826 556.061768,351.013947 
	C562.528442,361.741821 566.882935,373.768890 571.907410,385.331787 
	C575.831238,394.361725 584.356384,398.738983 592.806030,395.566559 
	C600.923401,392.518890 604.171753,384.279053 601.211243,374.943054 
	C592.786621,348.375702 578.749268,325.287903 558.541565,306.061279 
	C515.100952,264.729675 463.569916,248.611969 404.743866,259.628967 
	C363.023376,267.442413 328.429443,288.742859 302.471436,322.732452 
	C267.991638,367.880554 257.699860,418.675690 275.806213,472.211548 
	C297.463715,536.247253 343.488312,574.961975 410.617432,586.550110 
	C454.036743,594.045410 494.663208,584.507874 532.651428,562.838013 
	C537.510559,560.066223 542.061890,556.754761 546.683777,553.740295 
	C553.423157,559.915222 559.956787,565.599182 566.153259,571.629517 
	C599.710266,604.286804 633.160034,637.054260 666.737732,669.690186 
	C669.064087,671.951294 671.898865,674.080627 674.897339,675.176453 
	C680.905762,677.372192 687.091797,676.583435 691.610657,671.948364 
	C695.777283,667.674500 695.931885,661.940369 693.734741,656.477844 
	C692.895203,654.390747 691.375427,652.424255 689.747375,650.829895 
	C654.031250,615.853088 618.256165,580.936462 581.964966,545.535400 
z"/>
<path fill="#FDFEFD" opacity="1.000000" stroke="none" 
	d="
M582.228638,545.771851 
	C618.256165,580.936462 654.031250,615.853088 689.747375,650.829895 
	C691.375427,652.424255 692.895203,654.390747 693.734741,656.477844 
	C695.931885,661.940369 695.777283,667.674500 691.610657,671.948364 
	C687.091797,676.583435 680.905762,677.372192 674.897339,675.176453 
	C671.898865,674.080627 669.064087,671.951294 666.737732,669.690186 
	C633.160034,637.054260 599.710266,604.286804 566.153259,571.629517 
	C559.956787,565.599182 553.423157,559.915222 546.683777,553.740295 
	C542.061890,556.754761 537.510559,560.066223 532.651428,562.838013 
	C494.663208,584.507874 454.036743,594.045410 410.617432,586.550110 
	C343.488312,574.961975 297.463715,536.247253 275.806213,472.211548 
	C257.699860,418.675690 267.991638,367.880554 302.471436,322.732452 
	C328.429443,288.742859 363.023376,267.442413 404.743866,259.628967 
	C463.569916,248.611969 515.100952,264.729675 558.541565,306.061279 
	C578.749268,325.287903 592.786621,348.375702 601.211243,374.943054 
	C604.171753,384.279053 600.923401,392.518890 592.806030,395.566559 
	C584.356384,398.738983 575.831238,394.361725 571.907410,385.331787 
	C566.882935,373.768890 562.528442,361.741821 556.061768,351.013947 
	C541.542786,326.927826 520.317078,309.988861 494.754852,298.613464 
	C458.895386,282.655731 422.154846,281.313690 386.043365,296.357910 
	C338.476135,316.174683 308.971375,351.667206 300.966431,403.272980 
	C290.876556,468.319366 330.087006,528.583618 388.870575,550.009766 
	C423.090240,562.482605 457.131897,561.697144 490.910095,548.929688 
	C502.356476,544.603210 513.226196,538.751038 525.561218,533.039612 
	C519.502441,527.077637 514.444031,522.312561 509.626099,517.315735 
	C498.975830,506.269958 491.369629,493.612793 489.627930,478.018494 
	C487.666168,460.454163 493.792053,445.826233 506.722412,434.268555 
	C514.559021,427.263947 523.521179,421.839142 534.198425,419.720825 
	C552.280640,416.133423 574.128662,426.601593 582.906250,442.862091 
	C596.573120,468.179962 593.744873,492.817444 580.359009,517.079407 
	C577.161865,522.874268 573.320374,528.313660 569.572083,534.237610 
	C573.671631,537.974976 577.818298,541.755188 582.228638,545.771851 
M541.180115,505.312073 
	C542.847839,507.338806 544.515625,509.365540 547.124268,512.535583 
	C551.029663,505.290253 554.821716,499.766663 557.120117,493.679108 
	C562.039062,480.650818 563.402954,467.465393 555.188843,454.958527 
	C552.247803,450.480377 548.431152,447.928467 542.648682,448.732605 
	C524.315186,451.282135 514.981201,469.423676 524.692200,485.118958 
	C529.103088,492.248077 535.312317,498.264526 541.180115,505.312073 
z"/>
<path fill="#2E693F" opacity="1.000000" stroke="none" 
	d="
M540.942932,505.048889 
	C535.312317,498.264526 529.103088,492.248077 524.692200,485.118958 
	C514.981201,469.423676 524.315186,451.282135 542.648682,448.732605 
	C548.431152,447.928467 552.247803,450.480377 555.188843,454.958527 
	C563.402954,467.465393 562.039062,480.650818 557.120117,493.679108 
	C554.821716,499.766663 551.029663,505.290253 547.124268,512.535583 
	C544.515625,509.365540 542.847839,507.338806 540.942932,505.048889 
z"/>
</svg>